<?xml version="1.0" encoding="UTF-8" standalone="no"?>
<svg viewBox="0 0 400 400" xmlns="http://www.w3.org/2000/svg">
  <defs>
    <linearGradient id="skinGradient" x1="0%" y1="0%" x2="100%" y2="100%">
      <stop offset="0%" style="stop-color:#f5d0c5;stop-opacity:1" />
      <stop offset="100%" style="stop-color:#e0b0a0;stop-opacity:1" />
    </linearGradient>
    <linearGradient id="suitGradient" x1="0%" y1="0%" x2="100%" y2="100%">
      <stop offset="0%" style="stop-color:#6c5ce7;stop-opacity:1" />
      <stop offset="100%" style="stop-color:#a29bfe;stop-opacity:1" />
    </linearGradient>
  </defs>
  <rect width="400" height="400" fill="#1a1a1a"/>
  <!-- Suit -->
  <path d="M 100 200 L 300 200 L 350 400 L 50 400 Z" fill="url(#suitGradient)"/>
  <!-- Neck -->
  <path d="M 175 200 L 225 200 L 215 250 L 185 250 Z" fill="url(#skinGradient)"/>
  <!-- Head -->
  <circle cx="200" cy="150" r="80" fill="url(#skinGradient)"/>
  <!-- Hair -->
  <path d="M 120 150 C 120 70 280 70 280 150 L 280 110 C 280 50 120 50 120 110 Z" fill="#1a1a1a"/>
  <!-- Eyes -->
  <ellipse cx="170" cy="140" rx="8" ry="4" fill="#1a1a1a"/>
  <ellipse cx="230" cy="140" rx="8" ry="4" fill="#1a1a1a"/>
  <!-- Mouth -->
  <path d="M 180 170 Q 200 190 220 170" fill="none" stroke="#1a1a1a" stroke-width="3"/>
  <!-- Glasses -->
  <path d="M 160 135 L 240 135" stroke="#6c5ce7" fill="none" stroke-width="2"/>
  <circle cx="170" cy="140" r="15" stroke="#6c5ce7" fill="none" stroke-width="2"/>
  <circle cx="230" cy="140" r="15" stroke="#6c5ce7" fill="none" stroke-width="2"/>
</svg>
