<?xml version="1.0" encoding="UTF-8" standalone="no"?>
<svg viewBox="0 0 400 400" xmlns="http://www.w3.org/2000/svg">
  <defs>
    <linearGradient id="skinGradient" x1="0%" y1="0%" x2="100%" y2="100%">
      <stop offset="0%" style="stop-color:#ffecd2;stop-opacity:1" />
      <stop offset="100%" style="stop-color:#ffd5a5;stop-opacity:1" />
    </linearGradient>
    <linearGradient id="dressGradient" x1="0%" y1="0%" x2="100%" y2="100%">
      <stop offset="0%" style="stop-color:#a8e6cf;stop-opacity:1" />
      <stop offset="100%" style="stop-color:#dcedc1;stop-opacity:1" />
    </linearGradient>
    <linearGradient id="hairGradient" x1="0%" y1="0%" x2="100%" y2="100%">
      <stop offset="0%" style="stop-color:#ffd700;stop-opacity:1" />
      <stop offset="100%" style="stop-color:#ffa500;stop-opacity:1" />
    </linearGradient>
  </defs>
  <rect width="400" height="400" fill="#1a1a1a"/>
  <!-- Dress -->
  <path d="M 100 200 L 300 200 L 350 400 L 50 400 Z" fill="url(#dressGradient)"/>
  <!-- Neck -->
  <path d="M 175 200 L 225 200 L 215 250 L 185 250 Z" fill="url(#skinGradient)"/>
  <!-- Head -->
  <circle cx="200" cy="150" r="80" fill="url(#skinGradient)"/>
  <!-- Hair -->
  <path d="M 120 90 C 120 50 280 50 280 90 L 280 180 C 280 120 120 120 120 180 Z" fill="url(#hairGradient)"/>
  <!-- Eyes -->
  <ellipse cx="170" cy="140" rx="10" ry="6" fill="#1a1a1a"/>
  <ellipse cx="230" cy="140" rx="10" ry="6" fill="#1a1a1a"/>
  <!-- Smile -->
  <path d="M 180 170 Q 200 190 220 170" fill="none" stroke="#1a1a1a" stroke-width="3"/>
  <!-- Necklace -->
  <path d="M 175 200 Q 200 220 225 200" stroke="#ffd700" fill="none" stroke-width="2"/>
  <circle cx="200" cy="215" r="3" fill="#ffd700"/>
</svg>
