<?xml version="1.0" encoding="UTF-8" standalone="no"?>
<svg viewBox="0 0 400 400" xmlns="http://www.w3.org/2000/svg">
  <defs>
    <linearGradient id="skinGradient" x1="0%" y1="0%" x2="100%" y2="100%">
      <stop offset="0%" style="stop-color:#e8c39e;stop-opacity:1" />
      <stop offset="100%" style="stop-color:#d4b08c;stop-opacity:1" />
    </linearGradient>
    <linearGradient id="dressGradient" x1="0%" y1="0%" x2="100%" y2="100%">
      <stop offset="0%" style="stop-color:#e84393;stop-opacity:1" />
      <stop offset="100%" style="stop-color:#fd79a8;stop-opacity:1" />
    </linearGradient>
  </defs>
  <rect width="400" height="400" fill="#1a1a1a"/>
  <!-- Dress -->
  <path d="M 100 200 L 300 200 L 350 400 L 50 400 Z" fill="url(#dressGradient)"/>
  <!-- Neck -->
  <path d="M 175 200 L 225 200 L 215 250 L 185 250 Z" fill="url(#skinGradient)"/>
  <!-- Head -->
  <circle cx="200" cy="150" r="80" fill="url(#skinGradient)"/>
  <!-- Hair -->
  <path d="M 120 90 C 120 50 280 50 280 90 L 280 150 C 280 90 120 90 120 150 Z" fill="#1a1a1a"/>
  <path d="M 120 150 C 120 90 280 90 280 150 L 280 200 C 280 140 120 140 120 200 Z" fill="#1a1a1a"/>
  <!-- Eyes -->
  <ellipse cx="170" cy="140" rx="10" ry="6" fill="#1a1a1a"/>
  <ellipse cx="230" cy="140" rx="10" ry="6" fill="#1a1a1a"/>
  <!-- Smile -->
  <path d="M 180 170 Q 200 190 220 170" fill="none" stroke="#1a1a1a" stroke-width="3"/>
  <!-- Bindi -->
  <circle cx="200" cy="115" r="4" fill="#e84393"/>
  <!-- Earrings -->
  <circle cx="130" cy="150" r="5" fill="#ffd700"/>
  <circle cx="270" cy="150" r="5" fill="#ffd700"/>
</svg>
